<svg width="2937" height="1744" viewBox="0 0 2937 1744" fill="none" xmlns="http://www.w3.org/2000/svg">
<g opacity="0.1">
<line x1="57.5" y1="0.5" x2="57.5" y2="979.5" stroke="#F3EDD8" stroke-opacity="0.5"/>
<line x1="112.5" y1="0.5" x2="112.5" y2="979.5" stroke="#F3EDD8" stroke-opacity="0.5"/>
<line x1="167.5" y1="0.5" x2="167.5" y2="979.5" stroke="#F3EDD8" stroke-opacity="0.5"/>
<line x1="222.5" y1="0.5" x2="222.5" y2="979.5" stroke="#F3EDD8" stroke-opacity="0.5"/>
<line x1="277.5" y1="0.5" x2="277.5" y2="979.5" stroke="#F3EDD8" stroke-opacity="0.5"/>
<line x1="332.5" y1="0.5" x2="332.5" y2="979.5" stroke="#F3EDD8" stroke-opacity="0.5"/>
<line x1="387.5" y1="0.5" x2="387.5" y2="979.5" stroke="#F3EDD8" stroke-opacity="0.5"/>
<line x1="442.5" y1="0.5" x2="442.5" y2="979.5" stroke="#F3EDD8" stroke-opacity="0.5"/>
<line x1="497.5" y1="0.5" x2="497.5" y2="979.5" stroke="#F3EDD8" stroke-opacity="0.5"/>
<line x1="552.5" y1="0.5" x2="552.5" y2="979.5" stroke="#F3EDD8" stroke-opacity="0.5"/>
<line x1="607.5" y1="0.5" x2="607.5" y2="979.5" stroke="#F3EDD8" stroke-opacity="0.5"/>
<line x1="662.5" y1="0.5" x2="662.5" y2="979.5" stroke="#F3EDD8" stroke-opacity="0.5"/>
<line x1="717.5" y1="0.5" x2="717.5" y2="979.5" stroke="#F3EDD8" stroke-opacity="0.5"/>
<line x1="772.5" y1="0.5" x2="772.5" y2="979.5" stroke="#F3EDD8" stroke-opacity="0.5"/>
<line x1="827.5" y1="0.5" x2="827.5" y2="979.5" stroke="#F3EDD8" stroke-opacity="0.5"/>
<line x1="882.5" y1="0.5" x2="882.5" y2="979.5" stroke="#F3EDD8" stroke-opacity="0.5"/>
<line x1="937.5" y1="0.5" x2="937.5" y2="979.5" stroke="#F3EDD8" stroke-opacity="0.5"/>
<line x1="992.5" y1="0.5" x2="992.5" y2="979.5" stroke="#F3EDD8" stroke-opacity="0.5"/>
<line x1="1047.5" y1="0.5" x2="1047.5" y2="979.5" stroke="#F3EDD8" stroke-opacity="0.5"/>
<line x1="1102.5" y1="0.5" x2="1102.5" y2="979.5" stroke="#F3EDD8" stroke-opacity="0.5"/>
<line x1="1157.5" y1="0.5" x2="1157.5" y2="979.5" stroke="#F3EDD8" stroke-opacity="0.5"/>
<line x1="1212.5" y1="0.5" x2="1212.5" y2="979.5" stroke="#F3EDD8" stroke-opacity="0.5"/>
<line x1="1267.5" y1="0.5" x2="1267.5" y2="979.5" stroke="#F3EDD8" stroke-opacity="0.5"/>
<line x1="1322.5" y1="0.5" x2="1322.5" y2="979.5" stroke="#F3EDD8" stroke-opacity="0.5"/>
<line x1="1377.5" y1="0.5" x2="1377.5" y2="979.5" stroke="#F3EDD8" stroke-opacity="0.5"/>
<line x1="1432.5" y1="0.5" x2="1432.5" y2="979.5" stroke="#F3EDD8" stroke-opacity="0.5"/>
<line x1="1487.5" y1="0.5" x2="1487.5" y2="979.5" stroke="#F3EDD8" stroke-opacity="0.5"/>
<line x1="1542.5" y1="0.5" x2="1542.5" y2="979.5" stroke="#F3EDD8" stroke-opacity="0.5"/>
<line x1="1597.5" y1="0.5" x2="1597.5" y2="979.5" stroke="#F3EDD8" stroke-opacity="0.5"/>
<line x1="1652.5" y1="0.5" x2="1652.5" y2="979.5" stroke="#F3EDD8" stroke-opacity="0.5"/>
<line x1="1707.5" y1="0.5" x2="1707.5" y2="979.5" stroke="#F3EDD8" stroke-opacity="0.5"/>
<line x1="1762.5" y1="0.5" x2="1762.5" y2="979.5" stroke="#F3EDD8" stroke-opacity="0.5"/>
<line x1="1817.5" y1="0.5" x2="1817.5" y2="979.5" stroke="#F3EDD8" stroke-opacity="0.5"/>
<line x1="57.5" y1="974" x2="57.5" y2="1744" stroke="#F3EDD8" stroke-opacity="0.5"/>
<line x1="112.5" y1="974" x2="112.5" y2="1744" stroke="#F3EDD8" stroke-opacity="0.5"/>
<line x1="167.5" y1="974" x2="167.5" y2="1744" stroke="#F3EDD8" stroke-opacity="0.5"/>
<line x1="222.5" y1="974" x2="222.5" y2="1744" stroke="#F3EDD8" stroke-opacity="0.5"/>
<line x1="277.5" y1="974" x2="277.5" y2="1744" stroke="#F3EDD8" stroke-opacity="0.5"/>
<line x1="332.5" y1="974" x2="332.5" y2="1744" stroke="#F3EDD8" stroke-opacity="0.5"/>
<line x1="387.5" y1="974" x2="387.5" y2="1744" stroke="#F3EDD8" stroke-opacity="0.5"/>
<line x1="442.5" y1="974" x2="442.5" y2="1744" stroke="#F3EDD8" stroke-opacity="0.5"/>
<line x1="497.5" y1="974" x2="497.5" y2="1744" stroke="#F3EDD8" stroke-opacity="0.5"/>
<line x1="552.5" y1="974" x2="552.5" y2="1744" stroke="#F3EDD8" stroke-opacity="0.5"/>
<line x1="607.5" y1="974" x2="607.5" y2="1744" stroke="#F3EDD8" stroke-opacity="0.5"/>
<line x1="662.5" y1="974" x2="662.5" y2="1744" stroke="#F3EDD8" stroke-opacity="0.5"/>
<line x1="717.5" y1="974" x2="717.5" y2="1744" stroke="#F3EDD8" stroke-opacity="0.5"/>
<line x1="772.5" y1="974" x2="772.5" y2="1744" stroke="#F3EDD8" stroke-opacity="0.5"/>
<line x1="827.5" y1="974" x2="827.5" y2="1744" stroke="#F3EDD8" stroke-opacity="0.5"/>
<line x1="882.5" y1="974" x2="882.5" y2="1744" stroke="#F3EDD8" stroke-opacity="0.5"/>
<line x1="937.5" y1="974" x2="937.5" y2="1744" stroke="#F3EDD8" stroke-opacity="0.5"/>
<line x1="992.5" y1="974" x2="992.5" y2="1744" stroke="#F3EDD8" stroke-opacity="0.5"/>
<line x1="1047.5" y1="974" x2="1047.5" y2="1744" stroke="#F3EDD8" stroke-opacity="0.5"/>
<line x1="1102.5" y1="974" x2="1102.5" y2="1744" stroke="#F3EDD8" stroke-opacity="0.5"/>
<line x1="1157.5" y1="974" x2="1157.5" y2="1744" stroke="#F3EDD8" stroke-opacity="0.5"/>
<line x1="1212.5" y1="974" x2="1212.5" y2="1744" stroke="#F3EDD8" stroke-opacity="0.5"/>
<line x1="1267.5" y1="974" x2="1267.5" y2="1744" stroke="#F3EDD8" stroke-opacity="0.5"/>
<line x1="1322.5" y1="974" x2="1322.5" y2="1744" stroke="#F3EDD8" stroke-opacity="0.5"/>
<line x1="1377.5" y1="974" x2="1377.5" y2="1744" stroke="#F3EDD8" stroke-opacity="0.5"/>
<line x1="1432.5" y1="974" x2="1432.5" y2="1744" stroke="#F3EDD8" stroke-opacity="0.5"/>
<line x1="1487.5" y1="974" x2="1487.5" y2="1744" stroke="#F3EDD8" stroke-opacity="0.5"/>
<line x1="1542.5" y1="974" x2="1542.5" y2="1744" stroke="#F3EDD8" stroke-opacity="0.5"/>
<line x1="1597.5" y1="974" x2="1597.5" y2="1744" stroke="#F3EDD8" stroke-opacity="0.5"/>
<line x1="1652.5" y1="974" x2="1652.5" y2="1744" stroke="#F3EDD8" stroke-opacity="0.5"/>
<line x1="1707.5" y1="974" x2="1707.5" y2="1744" stroke="#F3EDD8" stroke-opacity="0.5"/>
<line x1="1762.5" y1="974" x2="1762.5" y2="1744" stroke="#F3EDD8" stroke-opacity="0.5"/>
<line x1="1817.5" y1="974" x2="1817.5" y2="1744" stroke="#F3EDD8" stroke-opacity="0.5"/>
<line x1="1817.5" y1="-2.18557e-08" x2="1817.5" y2="979" stroke="#F3EDD8" stroke-opacity="0.5"/>
<line x1="1872.5" y1="-2.18557e-08" x2="1872.5" y2="979" stroke="#F3EDD8" stroke-opacity="0.5"/>
<line x1="1927.5" y1="-2.18557e-08" x2="1927.5" y2="979" stroke="#F3EDD8" stroke-opacity="0.5"/>
<line x1="1982.5" y1="-2.18557e-08" x2="1982.5" y2="979" stroke="#F3EDD8" stroke-opacity="0.5"/>
<line x1="2037.5" y1="-2.18557e-08" x2="2037.5" y2="979" stroke="#F3EDD8" stroke-opacity="0.5"/>
<line x1="2092.5" y1="-2.18557e-08" x2="2092.5" y2="979" stroke="#F3EDD8" stroke-opacity="0.5"/>
<line x1="2147.5" y1="-2.18557e-08" x2="2147.5" y2="979" stroke="#F3EDD8" stroke-opacity="0.5"/>
<line x1="2202.5" y1="-2.18557e-08" x2="2202.5" y2="979" stroke="#F3EDD8" stroke-opacity="0.5"/>
<line x1="2257.5" y1="-2.18557e-08" x2="2257.5" y2="979" stroke="#F3EDD8" stroke-opacity="0.5"/>
<line x1="2312.5" y1="-2.18557e-08" x2="2312.5" y2="979" stroke="#F3EDD8" stroke-opacity="0.5"/>
<line x1="2367.5" y1="-2.18557e-08" x2="2367.5" y2="979" stroke="#F3EDD8" stroke-opacity="0.5"/>
<line x1="2422.5" y1="-2.18557e-08" x2="2422.5" y2="979" stroke="#F3EDD8" stroke-opacity="0.5"/>
<line x1="2477.5" y1="-2.18557e-08" x2="2477.5" y2="979" stroke="#F3EDD8" stroke-opacity="0.5"/>
<line x1="2532.5" y1="-2.18557e-08" x2="2532.5" y2="979" stroke="#F3EDD8" stroke-opacity="0.5"/>
<line x1="2587.5" y1="-2.18557e-08" x2="2587.5" y2="979" stroke="#F3EDD8" stroke-opacity="0.5"/>
<line x1="2642.5" y1="-2.18557e-08" x2="2642.5" y2="979" stroke="#F3EDD8" stroke-opacity="0.5"/>
<line x1="2697.5" y1="-2.18557e-08" x2="2697.5" y2="979" stroke="#F3EDD8" stroke-opacity="0.5"/>
<line x1="2752.5" y1="-2.18557e-08" x2="2752.5" y2="979" stroke="#F3EDD8" stroke-opacity="0.5"/>
<line x1="2807.5" y1="-2.18557e-08" x2="2807.5" y2="979" stroke="#F3EDD8" stroke-opacity="0.5"/>
<line x1="2862.5" y1="-2.18557e-08" x2="2862.5" y2="979" stroke="#F3EDD8" stroke-opacity="0.5"/>
<line x1="2917.5" y1="-2.18557e-08" x2="2917.5" y2="979" stroke="#F3EDD8" stroke-opacity="0.5"/>
<line x1="1817.5" y1="974" x2="1817.5" y2="1744" stroke="#F3EDD8" stroke-opacity="0.5"/>
<line x1="1872.5" y1="974" x2="1872.5" y2="1744" stroke="#F3EDD8" stroke-opacity="0.5"/>
<line x1="1927.5" y1="974" x2="1927.5" y2="1744" stroke="#F3EDD8" stroke-opacity="0.5"/>
<line x1="1982.5" y1="974" x2="1982.5" y2="1744" stroke="#F3EDD8" stroke-opacity="0.5"/>
<line x1="2037.5" y1="974" x2="2037.5" y2="1744" stroke="#F3EDD8" stroke-opacity="0.5"/>
<line x1="2092.5" y1="974" x2="2092.5" y2="1744" stroke="#F3EDD8" stroke-opacity="0.5"/>
<line x1="2147.5" y1="974" x2="2147.5" y2="1744" stroke="#F3EDD8" stroke-opacity="0.5"/>
<line x1="2202.5" y1="974" x2="2202.5" y2="1744" stroke="#F3EDD8" stroke-opacity="0.5"/>
<line x1="2257.5" y1="974" x2="2257.5" y2="1744" stroke="#F3EDD8" stroke-opacity="0.5"/>
<line x1="2312.5" y1="974" x2="2312.5" y2="1744" stroke="#F3EDD8" stroke-opacity="0.5"/>
<line x1="2367.5" y1="974" x2="2367.5" y2="1744" stroke="#F3EDD8" stroke-opacity="0.5"/>
<line x1="2422.5" y1="974" x2="2422.5" y2="1744" stroke="#F3EDD8" stroke-opacity="0.5"/>
<line x1="2477.5" y1="974" x2="2477.5" y2="1744" stroke="#F3EDD8" stroke-opacity="0.5"/>
<line x1="2532.5" y1="974" x2="2532.5" y2="1744" stroke="#F3EDD8" stroke-opacity="0.5"/>
<line x1="2587.5" y1="974" x2="2587.5" y2="1744" stroke="#F3EDD8" stroke-opacity="0.5"/>
<line x1="2642.5" y1="974" x2="2642.5" y2="1744" stroke="#F3EDD8" stroke-opacity="0.5"/>
<line x1="2697.5" y1="974" x2="2697.5" y2="1744" stroke="#F3EDD8" stroke-opacity="0.5"/>
<line x1="2752.5" y1="974" x2="2752.5" y2="1744" stroke="#F3EDD8" stroke-opacity="0.5"/>
<line x1="2807.5" y1="974" x2="2807.5" y2="1744" stroke="#F3EDD8" stroke-opacity="0.5"/>
<line x1="2862.5" y1="974" x2="2862.5" y2="1744" stroke="#F3EDD8" stroke-opacity="0.5"/>
<line x1="2917.5" y1="974" x2="2917.5" y2="1744" stroke="#F3EDD8" stroke-opacity="0.5"/>
<line x1="-4.37114e-08" y1="1743.5" x2="979" y2="1743.5" stroke="#F3EDD8" stroke-opacity="0.5"/>
<line x1="-4.37114e-08" y1="1688.5" x2="979" y2="1688.5" stroke="#F3EDD8" stroke-opacity="0.5"/>
<line x1="-4.37114e-08" y1="1633.5" x2="979" y2="1633.5" stroke="#F3EDD8" stroke-opacity="0.5"/>
<line x1="-4.37114e-08" y1="1578.5" x2="979" y2="1578.5" stroke="#F3EDD8" stroke-opacity="0.5"/>
<line x1="-4.37114e-08" y1="1523.5" x2="979" y2="1523.5" stroke="#F3EDD8" stroke-opacity="0.5"/>
<line x1="-4.37114e-08" y1="1468.5" x2="979" y2="1468.5" stroke="#F3EDD8" stroke-opacity="0.5"/>
<line x1="-4.37114e-08" y1="1413.5" x2="979" y2="1413.5" stroke="#F3EDD8" stroke-opacity="0.5"/>
<line x1="-4.37114e-08" y1="1358.5" x2="979" y2="1358.5" stroke="#F3EDD8" stroke-opacity="0.5"/>
<line x1="-4.37114e-08" y1="1303.5" x2="979" y2="1303.5" stroke="#F3EDD8" stroke-opacity="0.5"/>
<line x1="-4.37114e-08" y1="1248.5" x2="979" y2="1248.5" stroke="#F3EDD8" stroke-opacity="0.5"/>
<line x1="-4.37114e-08" y1="1193.5" x2="979" y2="1193.5" stroke="#F3EDD8" stroke-opacity="0.5"/>
<line x1="-4.37114e-08" y1="1138.5" x2="979" y2="1138.5" stroke="#F3EDD8" stroke-opacity="0.5"/>
<line x1="-4.37114e-08" y1="1083.5" x2="979" y2="1083.5" stroke="#F3EDD8" stroke-opacity="0.5"/>
<line x1="-4.37114e-08" y1="1028.5" x2="979" y2="1028.5" stroke="#F3EDD8" stroke-opacity="0.5"/>
<line x1="-4.37114e-08" y1="973.5" x2="979" y2="973.5" stroke="#F3EDD8" stroke-opacity="0.5"/>
<line x1="-4.37114e-08" y1="918.5" x2="979" y2="918.5" stroke="#F3EDD8" stroke-opacity="0.5"/>
<line x1="-4.37114e-08" y1="863.5" x2="979" y2="863.5" stroke="#F3EDD8" stroke-opacity="0.5"/>
<line x1="-4.37114e-08" y1="808.5" x2="979" y2="808.5" stroke="#F3EDD8" stroke-opacity="0.5"/>
<line x1="-4.37114e-08" y1="753.5" x2="979" y2="753.5" stroke="#F3EDD8" stroke-opacity="0.5"/>
<line x1="-4.37114e-08" y1="698.5" x2="979" y2="698.5" stroke="#F3EDD8" stroke-opacity="0.5"/>
<line x1="-4.37114e-08" y1="643.5" x2="979" y2="643.5" stroke="#F3EDD8" stroke-opacity="0.5"/>
<line x1="-4.37114e-08" y1="588.5" x2="979" y2="588.5" stroke="#F3EDD8" stroke-opacity="0.5"/>
<line x1="-4.37114e-08" y1="533.5" x2="979" y2="533.5" stroke="#F3EDD8" stroke-opacity="0.5"/>
<line x1="-4.37114e-08" y1="478.5" x2="979" y2="478.5" stroke="#F3EDD8" stroke-opacity="0.5"/>
<line x1="-4.37114e-08" y1="423.5" x2="979" y2="423.5" stroke="#F3EDD8" stroke-opacity="0.5"/>
<line x1="-4.37114e-08" y1="368.5" x2="979" y2="368.5" stroke="#F3EDD8" stroke-opacity="0.5"/>
<line x1="-4.37114e-08" y1="313.5" x2="979" y2="313.5" stroke="#F3EDD8" stroke-opacity="0.5"/>
<line x1="-4.37114e-08" y1="258.5" x2="979" y2="258.5" stroke="#F3EDD8" stroke-opacity="0.5"/>
<line x1="-4.37114e-08" y1="203.5" x2="979" y2="203.5" stroke="#F3EDD8" stroke-opacity="0.5"/>
<line x1="-4.37114e-08" y1="148.5" x2="979" y2="148.5" stroke="#F3EDD8" stroke-opacity="0.5"/>
<line x1="-4.37114e-08" y1="93.5" x2="979" y2="93.4999" stroke="#F3EDD8" stroke-opacity="0.5"/>
<line x1="-4.37114e-08" y1="38.5" x2="979" y2="38.4999" stroke="#F3EDD8" stroke-opacity="0.5"/>
<line x1="979" y1="1743.5" x2="1958" y2="1743.5" stroke="#F3EDD8" stroke-opacity="0.5"/>
<line x1="979" y1="1688.5" x2="1958" y2="1688.5" stroke="#F3EDD8" stroke-opacity="0.5"/>
<line x1="979" y1="1633.5" x2="1958" y2="1633.5" stroke="#F3EDD8" stroke-opacity="0.5"/>
<line x1="979" y1="1578.5" x2="1958" y2="1578.5" stroke="#F3EDD8" stroke-opacity="0.5"/>
<line x1="979" y1="1523.5" x2="1958" y2="1523.5" stroke="#F3EDD8" stroke-opacity="0.5"/>
<line x1="979" y1="1468.5" x2="1958" y2="1468.5" stroke="#F3EDD8" stroke-opacity="0.5"/>
<line x1="979" y1="1413.5" x2="1958" y2="1413.5" stroke="#F3EDD8" stroke-opacity="0.5"/>
<line x1="979" y1="1358.5" x2="1958" y2="1358.5" stroke="#F3EDD8" stroke-opacity="0.5"/>
<line x1="979" y1="1303.5" x2="1958" y2="1303.5" stroke="#F3EDD8" stroke-opacity="0.5"/>
<line x1="979" y1="1248.5" x2="1958" y2="1248.5" stroke="#F3EDD8" stroke-opacity="0.5"/>
<line x1="979" y1="1193.5" x2="1958" y2="1193.5" stroke="#F3EDD8" stroke-opacity="0.5"/>
<line x1="979" y1="1138.5" x2="1958" y2="1138.5" stroke="#F3EDD8" stroke-opacity="0.5"/>
<line x1="979" y1="1083.5" x2="1958" y2="1083.5" stroke="#F3EDD8" stroke-opacity="0.5"/>
<line x1="979" y1="1028.5" x2="1958" y2="1028.5" stroke="#F3EDD8" stroke-opacity="0.5"/>
<line x1="979" y1="973.5" x2="1958" y2="973.5" stroke="#F3EDD8" stroke-opacity="0.5"/>
<line x1="979" y1="918.5" x2="1958" y2="918.5" stroke="#F3EDD8" stroke-opacity="0.5"/>
<line x1="979" y1="863.5" x2="1958" y2="863.5" stroke="#F3EDD8" stroke-opacity="0.5"/>
<line x1="979" y1="808.5" x2="1958" y2="808.5" stroke="#F3EDD8" stroke-opacity="0.5"/>
<line x1="979" y1="753.5" x2="1958" y2="753.5" stroke="#F3EDD8" stroke-opacity="0.5"/>
<line x1="979" y1="698.5" x2="1958" y2="698.5" stroke="#F3EDD8" stroke-opacity="0.5"/>
<line x1="979" y1="643.5" x2="1958" y2="643.5" stroke="#F3EDD8" stroke-opacity="0.5"/>
<line x1="979" y1="588.5" x2="1958" y2="588.5" stroke="#F3EDD8" stroke-opacity="0.5"/>
<line x1="979" y1="533.5" x2="1958" y2="533.5" stroke="#F3EDD8" stroke-opacity="0.5"/>
<line x1="979" y1="478.5" x2="1958" y2="478.5" stroke="#F3EDD8" stroke-opacity="0.5"/>
<line x1="979" y1="423.5" x2="1958" y2="423.5" stroke="#F3EDD8" stroke-opacity="0.5"/>
<line x1="979" y1="368.5" x2="1958" y2="368.5" stroke="#F3EDD8" stroke-opacity="0.5"/>
<line x1="979" y1="313.5" x2="1958" y2="313.5" stroke="#F3EDD8" stroke-opacity="0.5"/>
<line x1="979" y1="258.5" x2="1958" y2="258.5" stroke="#F3EDD8" stroke-opacity="0.5"/>
<line x1="979" y1="203.5" x2="1958" y2="203.5" stroke="#F3EDD8" stroke-opacity="0.5"/>
<line x1="979" y1="148.5" x2="1958" y2="148.5" stroke="#F3EDD8" stroke-opacity="0.5"/>
<line x1="979" y1="93.5" x2="1958" y2="93.4999" stroke="#F3EDD8" stroke-opacity="0.5"/>
<line x1="979" y1="38.5" x2="1958" y2="38.4999" stroke="#F3EDD8" stroke-opacity="0.5"/>
<line x1="1958" y1="1743.5" x2="2937" y2="1743.5" stroke="#F3EDD8" stroke-opacity="0.5"/>
<line x1="1958" y1="1688.5" x2="2937" y2="1688.5" stroke="#F3EDD8" stroke-opacity="0.5"/>
<line x1="1958" y1="1633.5" x2="2937" y2="1633.5" stroke="#F3EDD8" stroke-opacity="0.5"/>
<line x1="1958" y1="1578.5" x2="2937" y2="1578.5" stroke="#F3EDD8" stroke-opacity="0.5"/>
<line x1="1958" y1="1523.5" x2="2937" y2="1523.5" stroke="#F3EDD8" stroke-opacity="0.5"/>
<line x1="1958" y1="1468.5" x2="2937" y2="1468.5" stroke="#F3EDD8" stroke-opacity="0.5"/>
<line x1="1958" y1="1413.5" x2="2937" y2="1413.5" stroke="#F3EDD8" stroke-opacity="0.5"/>
<line x1="1958" y1="1358.5" x2="2937" y2="1358.5" stroke="#F3EDD8" stroke-opacity="0.5"/>
<line x1="1958" y1="1303.5" x2="2937" y2="1303.5" stroke="#F3EDD8" stroke-opacity="0.5"/>
<line x1="1958" y1="1248.5" x2="2937" y2="1248.5" stroke="#F3EDD8" stroke-opacity="0.5"/>
<line x1="1958" y1="1193.5" x2="2937" y2="1193.5" stroke="#F3EDD8" stroke-opacity="0.5"/>
<line x1="1958" y1="1138.5" x2="2937" y2="1138.5" stroke="#F3EDD8" stroke-opacity="0.5"/>
<line x1="1958" y1="1083.5" x2="2937" y2="1083.5" stroke="#F3EDD8" stroke-opacity="0.5"/>
<line x1="1958" y1="1028.5" x2="2937" y2="1028.5" stroke="#F3EDD8" stroke-opacity="0.5"/>
<line x1="1958" y1="973.5" x2="2937" y2="973.5" stroke="#F3EDD8" stroke-opacity="0.5"/>
<line x1="1958" y1="918.5" x2="2937" y2="918.5" stroke="#F3EDD8" stroke-opacity="0.5"/>
<line x1="1958" y1="863.5" x2="2937" y2="863.5" stroke="#F3EDD8" stroke-opacity="0.5"/>
<line x1="1958" y1="808.5" x2="2937" y2="808.5" stroke="#F3EDD8" stroke-opacity="0.5"/>
<line x1="1958" y1="753.5" x2="2937" y2="753.5" stroke="#F3EDD8" stroke-opacity="0.5"/>
<line x1="1958" y1="698.5" x2="2937" y2="698.5" stroke="#F3EDD8" stroke-opacity="0.5"/>
<line x1="1958" y1="643.5" x2="2937" y2="643.5" stroke="#F3EDD8" stroke-opacity="0.5"/>
<line x1="1958" y1="588.5" x2="2937" y2="588.5" stroke="#F3EDD8" stroke-opacity="0.5"/>
<line x1="1958" y1="533.5" x2="2937" y2="533.5" stroke="#F3EDD8" stroke-opacity="0.5"/>
<line x1="1958" y1="478.5" x2="2937" y2="478.5" stroke="#F3EDD8" stroke-opacity="0.5"/>
<line x1="1958" y1="423.5" x2="2937" y2="423.5" stroke="#F3EDD8" stroke-opacity="0.5"/>
<line x1="1958" y1="368.5" x2="2937" y2="368.5" stroke="#F3EDD8" stroke-opacity="0.5"/>
<line x1="1958" y1="313.5" x2="2937" y2="313.5" stroke="#F3EDD8" stroke-opacity="0.5"/>
<line x1="1958" y1="258.5" x2="2937" y2="258.5" stroke="#F3EDD8" stroke-opacity="0.5"/>
<line x1="1958" y1="203.5" x2="2937" y2="203.5" stroke="#F3EDD8" stroke-opacity="0.5"/>
<line x1="1958" y1="148.5" x2="2937" y2="148.5" stroke="#F3EDD8" stroke-opacity="0.5"/>
<line x1="1958" y1="93.5" x2="2937" y2="93.4999" stroke="#F3EDD8" stroke-opacity="0.5"/>
<line x1="1958" y1="38.5" x2="2937" y2="38.4999" stroke="#F3EDD8" stroke-opacity="0.5"/>
</g>
<line x1="57" y1="87" x2="57" y2="99" stroke="#F3EDD8" stroke-opacity="0.15" stroke-width="2"/>
<line x1="63.4287" y1="93" x2="51.0001" y2="93" stroke="#F3EDD8" stroke-opacity="0.15" stroke-width="2"/>
<line x1="57" y1="307" x2="57" y2="319" stroke="#F3EDD8" stroke-opacity="0.15" stroke-width="2"/>
<line x1="63.4287" y1="313" x2="51.0001" y2="313" stroke="#F3EDD8" stroke-opacity="0.15" stroke-width="2"/>
<line x1="57" y1="527" x2="57" y2="539" stroke="#F3EDD8" stroke-opacity="0.15" stroke-width="2"/>
<line x1="63.4287" y1="533" x2="51.0001" y2="533" stroke="#F3EDD8" stroke-opacity="0.15" stroke-width="2"/>
<line x1="57" y1="747" x2="57" y2="759" stroke="#F3EDD8" stroke-opacity="0.15" stroke-width="2"/>
<line x1="63.4287" y1="753" x2="51.0001" y2="753" stroke="#F3EDD8" stroke-opacity="0.15" stroke-width="2"/>
<line x1="57" y1="967" x2="57" y2="979" stroke="#F3EDD8" stroke-opacity="0.15" stroke-width="2"/>
<line x1="63.4287" y1="973" x2="51.0001" y2="973" stroke="#F3EDD8" stroke-opacity="0.15" stroke-width="2"/>
<line x1="57" y1="1187" x2="57" y2="1199" stroke="#F3EDD8" stroke-opacity="0.15" stroke-width="2"/>
<line x1="63.4287" y1="1193" x2="51.0001" y2="1193" stroke="#F3EDD8" stroke-opacity="0.15" stroke-width="2"/>
<line x1="57" y1="1407" x2="57" y2="1419" stroke="#F3EDD8" stroke-opacity="0.15" stroke-width="2"/>
<line x1="63.4287" y1="1413" x2="51.0001" y2="1413" stroke="#F3EDD8" stroke-opacity="0.15" stroke-width="2"/>
<line x1="57" y1="1627" x2="57" y2="1639" stroke="#F3EDD8" stroke-opacity="0.15" stroke-width="2"/>
<line x1="63.4287" y1="1633" x2="51.0001" y2="1633" stroke="#F3EDD8" stroke-opacity="0.15" stroke-width="2"/>
<line x1="277" y1="87" x2="277" y2="99" stroke="#F3EDD8" stroke-opacity="0.15" stroke-width="2"/>
<line x1="283.429" y1="93" x2="271" y2="93" stroke="#F3EDD8" stroke-opacity="0.15" stroke-width="2"/>
<line x1="277" y1="307" x2="277" y2="319" stroke="#F3EDD8" stroke-opacity="0.15" stroke-width="2"/>
<line x1="283.429" y1="313" x2="271" y2="313" stroke="#F3EDD8" stroke-opacity="0.15" stroke-width="2"/>
<line x1="277" y1="527" x2="277" y2="539" stroke="#F3EDD8" stroke-opacity="0.15" stroke-width="2"/>
<line x1="283.429" y1="533" x2="271" y2="533" stroke="#F3EDD8" stroke-opacity="0.15" stroke-width="2"/>
<line x1="277" y1="747" x2="277" y2="759" stroke="#F3EDD8" stroke-opacity="0.15" stroke-width="2"/>
<line x1="283.429" y1="753" x2="271" y2="753" stroke="#F3EDD8" stroke-opacity="0.15" stroke-width="2"/>
<line x1="277" y1="967" x2="277" y2="979" stroke="#F3EDD8" stroke-opacity="0.15" stroke-width="2"/>
<line x1="283.429" y1="973" x2="271" y2="973" stroke="#F3EDD8" stroke-opacity="0.15" stroke-width="2"/>
<line x1="277" y1="1187" x2="277" y2="1199" stroke="#F3EDD8" stroke-opacity="0.15" stroke-width="2"/>
<line x1="283.429" y1="1193" x2="271" y2="1193" stroke="#F3EDD8" stroke-opacity="0.15" stroke-width="2"/>
<line x1="277" y1="1407" x2="277" y2="1419" stroke="#F3EDD8" stroke-opacity="0.15" stroke-width="2"/>
<line x1="283.429" y1="1413" x2="271" y2="1413" stroke="#F3EDD8" stroke-opacity="0.15" stroke-width="2"/>
<line x1="277" y1="1627" x2="277" y2="1639" stroke="#F3EDD8" stroke-opacity="0.15" stroke-width="2"/>
<line x1="283.429" y1="1633" x2="271" y2="1633" stroke="#F3EDD8" stroke-opacity="0.15" stroke-width="2"/>
<line x1="497" y1="87" x2="497" y2="99" stroke="#F3EDD8" stroke-opacity="0.15" stroke-width="2"/>
<line x1="503.429" y1="93" x2="491" y2="93" stroke="#F3EDD8" stroke-opacity="0.15" stroke-width="2"/>
<line x1="497" y1="307" x2="497" y2="319" stroke="#F3EDD8" stroke-opacity="0.15" stroke-width="2"/>
<line x1="503.429" y1="313" x2="491" y2="313" stroke="#F3EDD8" stroke-opacity="0.15" stroke-width="2"/>
<line x1="497" y1="527" x2="497" y2="539" stroke="#F3EDD8" stroke-opacity="0.15" stroke-width="2"/>
<line x1="503.429" y1="533" x2="491" y2="533" stroke="#F3EDD8" stroke-opacity="0.15" stroke-width="2"/>
<line x1="497" y1="747" x2="497" y2="759" stroke="#F3EDD8" stroke-opacity="0.15" stroke-width="2"/>
<line x1="503.429" y1="753" x2="491" y2="753" stroke="#F3EDD8" stroke-opacity="0.15" stroke-width="2"/>
<line x1="497" y1="967" x2="497" y2="979" stroke="#F3EDD8" stroke-opacity="0.15" stroke-width="2"/>
<line x1="503.429" y1="973" x2="491" y2="973" stroke="#F3EDD8" stroke-opacity="0.15" stroke-width="2"/>
<line x1="497" y1="1187" x2="497" y2="1199" stroke="#F3EDD8" stroke-opacity="0.15" stroke-width="2"/>
<line x1="503.429" y1="1193" x2="491" y2="1193" stroke="#F3EDD8" stroke-opacity="0.15" stroke-width="2"/>
<line x1="497" y1="1407" x2="497" y2="1419" stroke="#F3EDD8" stroke-opacity="0.15" stroke-width="2"/>
<line x1="503.429" y1="1413" x2="491" y2="1413" stroke="#F3EDD8" stroke-opacity="0.15" stroke-width="2"/>
<line x1="497" y1="1627" x2="497" y2="1639" stroke="#F3EDD8" stroke-opacity="0.15" stroke-width="2"/>
<line x1="503.429" y1="1633" x2="491" y2="1633" stroke="#F3EDD8" stroke-opacity="0.15" stroke-width="2"/>
<line x1="717" y1="87" x2="717" y2="99" stroke="#F3EDD8" stroke-opacity="0.15" stroke-width="2"/>
<line x1="723.429" y1="93" x2="711" y2="93" stroke="#F3EDD8" stroke-opacity="0.15" stroke-width="2"/>
<line x1="717" y1="307" x2="717" y2="319" stroke="#F3EDD8" stroke-opacity="0.15" stroke-width="2"/>
<line x1="723.429" y1="313" x2="711" y2="313" stroke="#F3EDD8" stroke-opacity="0.15" stroke-width="2"/>
<line x1="717" y1="527" x2="717" y2="539" stroke="#F3EDD8" stroke-opacity="0.15" stroke-width="2"/>
<line x1="723.429" y1="533" x2="711" y2="533" stroke="#F3EDD8" stroke-opacity="0.15" stroke-width="2"/>
<line x1="717" y1="747" x2="717" y2="759" stroke="#F3EDD8" stroke-opacity="0.15" stroke-width="2"/>
<line x1="723.429" y1="753" x2="711" y2="753" stroke="#F3EDD8" stroke-opacity="0.15" stroke-width="2"/>
<line x1="717" y1="967" x2="717" y2="979" stroke="#F3EDD8" stroke-opacity="0.15" stroke-width="2"/>
<line x1="723.429" y1="973" x2="711" y2="973" stroke="#F3EDD8" stroke-opacity="0.15" stroke-width="2"/>
<line x1="717" y1="1187" x2="717" y2="1199" stroke="#F3EDD8" stroke-opacity="0.15" stroke-width="2"/>
<line x1="723.429" y1="1193" x2="711" y2="1193" stroke="#F3EDD8" stroke-opacity="0.15" stroke-width="2"/>
<line x1="717" y1="1407" x2="717" y2="1419" stroke="#F3EDD8" stroke-opacity="0.15" stroke-width="2"/>
<line x1="723.429" y1="1413" x2="711" y2="1413" stroke="#F3EDD8" stroke-opacity="0.15" stroke-width="2"/>
<line x1="717" y1="1627" x2="717" y2="1639" stroke="#F3EDD8" stroke-opacity="0.15" stroke-width="2"/>
<line x1="723.429" y1="1633" x2="711" y2="1633" stroke="#F3EDD8" stroke-opacity="0.15" stroke-width="2"/>
<line x1="937" y1="87" x2="937" y2="99" stroke="#F3EDD8" stroke-opacity="0.15" stroke-width="2"/>
<line x1="943.429" y1="93" x2="931" y2="93" stroke="#F3EDD8" stroke-opacity="0.15" stroke-width="2"/>
<line x1="937" y1="307" x2="937" y2="319" stroke="#F3EDD8" stroke-opacity="0.15" stroke-width="2"/>
<line x1="943.429" y1="313" x2="931" y2="313" stroke="#F3EDD8" stroke-opacity="0.15" stroke-width="2"/>
<line x1="937" y1="527" x2="937" y2="539" stroke="#F3EDD8" stroke-opacity="0.15" stroke-width="2"/>
<line x1="943.429" y1="533" x2="931" y2="533" stroke="#F3EDD8" stroke-opacity="0.15" stroke-width="2"/>
<line x1="937" y1="747" x2="937" y2="759" stroke="#F3EDD8" stroke-opacity="0.15" stroke-width="2"/>
<line x1="943.429" y1="753" x2="931" y2="753" stroke="#F3EDD8" stroke-opacity="0.15" stroke-width="2"/>
<line x1="937" y1="967" x2="937" y2="979" stroke="#F3EDD8" stroke-opacity="0.15" stroke-width="2"/>
<line x1="943.429" y1="973" x2="931" y2="973" stroke="#F3EDD8" stroke-opacity="0.15" stroke-width="2"/>
<line x1="937" y1="1187" x2="937" y2="1199" stroke="#F3EDD8" stroke-opacity="0.15" stroke-width="2"/>
<line x1="943.429" y1="1193" x2="931" y2="1193" stroke="#F3EDD8" stroke-opacity="0.15" stroke-width="2"/>
<line x1="937" y1="1407" x2="937" y2="1419" stroke="#F3EDD8" stroke-opacity="0.15" stroke-width="2"/>
<line x1="943.429" y1="1413" x2="931" y2="1413" stroke="#F3EDD8" stroke-opacity="0.15" stroke-width="2"/>
<line x1="937" y1="1627" x2="937" y2="1639" stroke="#F3EDD8" stroke-opacity="0.15" stroke-width="2"/>
<line x1="943.429" y1="1633" x2="931" y2="1633" stroke="#F3EDD8" stroke-opacity="0.15" stroke-width="2"/>
<line x1="1157" y1="87" x2="1157" y2="99" stroke="#F3EDD8" stroke-opacity="0.15" stroke-width="2"/>
<line x1="1163.43" y1="93" x2="1151" y2="93" stroke="#F3EDD8" stroke-opacity="0.15" stroke-width="2"/>
<line x1="1157" y1="307" x2="1157" y2="319" stroke="#F3EDD8" stroke-opacity="0.15" stroke-width="2"/>
<line x1="1163.43" y1="313" x2="1151" y2="313" stroke="#F3EDD8" stroke-opacity="0.15" stroke-width="2"/>
<line x1="1157" y1="527" x2="1157" y2="539" stroke="#F3EDD8" stroke-opacity="0.15" stroke-width="2"/>
<line x1="1163.43" y1="533" x2="1151" y2="533" stroke="#F3EDD8" stroke-opacity="0.15" stroke-width="2"/>
<line x1="1157" y1="747" x2="1157" y2="759" stroke="#F3EDD8" stroke-opacity="0.15" stroke-width="2"/>
<line x1="1163.43" y1="753" x2="1151" y2="753" stroke="#F3EDD8" stroke-opacity="0.15" stroke-width="2"/>
<line x1="1157" y1="967" x2="1157" y2="979" stroke="#F3EDD8" stroke-opacity="0.15" stroke-width="2"/>
<line x1="1163.43" y1="973" x2="1151" y2="973" stroke="#F3EDD8" stroke-opacity="0.15" stroke-width="2"/>
<line x1="1157" y1="1187" x2="1157" y2="1199" stroke="#F3EDD8" stroke-opacity="0.15" stroke-width="2"/>
<line x1="1163.43" y1="1193" x2="1151" y2="1193" stroke="#F3EDD8" stroke-opacity="0.15" stroke-width="2"/>
<line x1="1157" y1="1407" x2="1157" y2="1419" stroke="#F3EDD8" stroke-opacity="0.15" stroke-width="2"/>
<line x1="1163.43" y1="1413" x2="1151" y2="1413" stroke="#F3EDD8" stroke-opacity="0.15" stroke-width="2"/>
<line x1="1157" y1="1627" x2="1157" y2="1639" stroke="#F3EDD8" stroke-opacity="0.15" stroke-width="2"/>
<line x1="1163.43" y1="1633" x2="1151" y2="1633" stroke="#F3EDD8" stroke-opacity="0.15" stroke-width="2"/>
<line x1="1377" y1="87" x2="1377" y2="99" stroke="#F3EDD8" stroke-opacity="0.15" stroke-width="2"/>
<line x1="1383.43" y1="93" x2="1371" y2="93" stroke="#F3EDD8" stroke-opacity="0.15" stroke-width="2"/>
<line x1="1377" y1="307" x2="1377" y2="319" stroke="#F3EDD8" stroke-opacity="0.15" stroke-width="2"/>
<line x1="1383.43" y1="313" x2="1371" y2="313" stroke="#F3EDD8" stroke-opacity="0.15" stroke-width="2"/>
<line x1="1377" y1="527" x2="1377" y2="539" stroke="#F3EDD8" stroke-opacity="0.15" stroke-width="2"/>
<line x1="1383.43" y1="533" x2="1371" y2="533" stroke="#F3EDD8" stroke-opacity="0.15" stroke-width="2"/>
<line x1="1377" y1="747" x2="1377" y2="759" stroke="#F3EDD8" stroke-opacity="0.15" stroke-width="2"/>
<line x1="1383.43" y1="753" x2="1371" y2="753" stroke="#F3EDD8" stroke-opacity="0.15" stroke-width="2"/>
<line x1="1377" y1="967" x2="1377" y2="979" stroke="#F3EDD8" stroke-opacity="0.15" stroke-width="2"/>
<line x1="1383.43" y1="973" x2="1371" y2="973" stroke="#F3EDD8" stroke-opacity="0.15" stroke-width="2"/>
<line x1="1377" y1="1187" x2="1377" y2="1199" stroke="#F3EDD8" stroke-opacity="0.15" stroke-width="2"/>
<line x1="1383.43" y1="1193" x2="1371" y2="1193" stroke="#F3EDD8" stroke-opacity="0.15" stroke-width="2"/>
<line x1="1377" y1="1407" x2="1377" y2="1419" stroke="#F3EDD8" stroke-opacity="0.15" stroke-width="2"/>
<line x1="1383.43" y1="1413" x2="1371" y2="1413" stroke="#F3EDD8" stroke-opacity="0.15" stroke-width="2"/>
<line x1="1377" y1="1627" x2="1377" y2="1639" stroke="#F3EDD8" stroke-opacity="0.15" stroke-width="2"/>
<line x1="1383.43" y1="1633" x2="1371" y2="1633" stroke="#F3EDD8" stroke-opacity="0.15" stroke-width="2"/>
<line x1="1597" y1="87" x2="1597" y2="99" stroke="#F3EDD8" stroke-opacity="0.15" stroke-width="2"/>
<line x1="1603.43" y1="93" x2="1591" y2="93" stroke="#F3EDD8" stroke-opacity="0.15" stroke-width="2"/>
<line x1="1597" y1="307" x2="1597" y2="319" stroke="#F3EDD8" stroke-opacity="0.15" stroke-width="2"/>
<line x1="1603.43" y1="313" x2="1591" y2="313" stroke="#F3EDD8" stroke-opacity="0.15" stroke-width="2"/>
<line x1="1597" y1="527" x2="1597" y2="539" stroke="#F3EDD8" stroke-opacity="0.15" stroke-width="2"/>
<line x1="1603.43" y1="533" x2="1591" y2="533" stroke="#F3EDD8" stroke-opacity="0.15" stroke-width="2"/>
<line x1="1597" y1="747" x2="1597" y2="759" stroke="#F3EDD8" stroke-opacity="0.15" stroke-width="2"/>
<line x1="1603.43" y1="753" x2="1591" y2="753" stroke="#F3EDD8" stroke-opacity="0.15" stroke-width="2"/>
<line x1="1597" y1="967" x2="1597" y2="979" stroke="#F3EDD8" stroke-opacity="0.15" stroke-width="2"/>
<line x1="1603.43" y1="973" x2="1591" y2="973" stroke="#F3EDD8" stroke-opacity="0.15" stroke-width="2"/>
<line x1="1597" y1="1187" x2="1597" y2="1199" stroke="#F3EDD8" stroke-opacity="0.15" stroke-width="2"/>
<line x1="1603.43" y1="1193" x2="1591" y2="1193" stroke="#F3EDD8" stroke-opacity="0.15" stroke-width="2"/>
<line x1="1597" y1="1407" x2="1597" y2="1419" stroke="#F3EDD8" stroke-opacity="0.15" stroke-width="2"/>
<line x1="1603.43" y1="1413" x2="1591" y2="1413" stroke="#F3EDD8" stroke-opacity="0.15" stroke-width="2"/>
<line x1="1597" y1="1627" x2="1597" y2="1639" stroke="#F3EDD8" stroke-opacity="0.15" stroke-width="2"/>
<line x1="1603.43" y1="1633" x2="1591" y2="1633" stroke="#F3EDD8" stroke-opacity="0.15" stroke-width="2"/>
<line x1="1817" y1="87" x2="1817" y2="99" stroke="#F3EDD8" stroke-opacity="0.15" stroke-width="2"/>
<line x1="1823.43" y1="93" x2="1811" y2="93" stroke="#F3EDD8" stroke-opacity="0.15" stroke-width="2"/>
<line x1="1817" y1="307" x2="1817" y2="319" stroke="#F3EDD8" stroke-opacity="0.15" stroke-width="2"/>
<line x1="1823.43" y1="313" x2="1811" y2="313" stroke="#F3EDD8" stroke-opacity="0.15" stroke-width="2"/>
<line x1="1817" y1="527" x2="1817" y2="539" stroke="#F3EDD8" stroke-opacity="0.15" stroke-width="2"/>
<line x1="1823.43" y1="533" x2="1811" y2="533" stroke="#F3EDD8" stroke-opacity="0.15" stroke-width="2"/>
<line x1="1817" y1="747" x2="1817" y2="759" stroke="#F3EDD8" stroke-opacity="0.15" stroke-width="2"/>
<line x1="1823.43" y1="753" x2="1811" y2="753" stroke="#F3EDD8" stroke-opacity="0.15" stroke-width="2"/>
<line x1="1817" y1="967" x2="1817" y2="979" stroke="#F3EDD8" stroke-opacity="0.15" stroke-width="2"/>
<line x1="1823.43" y1="973" x2="1811" y2="973" stroke="#F3EDD8" stroke-opacity="0.15" stroke-width="2"/>
<line x1="1817" y1="1187" x2="1817" y2="1199" stroke="#F3EDD8" stroke-opacity="0.15" stroke-width="2"/>
<line x1="1823.43" y1="1193" x2="1811" y2="1193" stroke="#F3EDD8" stroke-opacity="0.15" stroke-width="2"/>
<line x1="1817" y1="1407" x2="1817" y2="1419" stroke="#F3EDD8" stroke-opacity="0.15" stroke-width="2"/>
<line x1="1823.43" y1="1413" x2="1811" y2="1413" stroke="#F3EDD8" stroke-opacity="0.15" stroke-width="2"/>
<line x1="1817" y1="1627" x2="1817" y2="1639" stroke="#F3EDD8" stroke-opacity="0.15" stroke-width="2"/>
<line x1="1823.43" y1="1633" x2="1811" y2="1633" stroke="#F3EDD8" stroke-opacity="0.15" stroke-width="2"/>
<line x1="2037" y1="87" x2="2037" y2="99" stroke="#F3EDD8" stroke-opacity="0.15" stroke-width="2"/>
<line x1="2043.43" y1="93" x2="2031" y2="93" stroke="#F3EDD8" stroke-opacity="0.15" stroke-width="2"/>
<line x1="2037" y1="307" x2="2037" y2="319" stroke="#F3EDD8" stroke-opacity="0.15" stroke-width="2"/>
<line x1="2043.43" y1="313" x2="2031" y2="313" stroke="#F3EDD8" stroke-opacity="0.15" stroke-width="2"/>
<line x1="2037" y1="527" x2="2037" y2="539" stroke="#F3EDD8" stroke-opacity="0.15" stroke-width="2"/>
<line x1="2043.43" y1="533" x2="2031" y2="533" stroke="#F3EDD8" stroke-opacity="0.15" stroke-width="2"/>
<line x1="2037" y1="747" x2="2037" y2="759" stroke="#F3EDD8" stroke-opacity="0.15" stroke-width="2"/>
<line x1="2043.43" y1="753" x2="2031" y2="753" stroke="#F3EDD8" stroke-opacity="0.15" stroke-width="2"/>
<line x1="2037" y1="967" x2="2037" y2="979" stroke="#F3EDD8" stroke-opacity="0.15" stroke-width="2"/>
<line x1="2043.43" y1="973" x2="2031" y2="973" stroke="#F3EDD8" stroke-opacity="0.15" stroke-width="2"/>
<line x1="2037" y1="1187" x2="2037" y2="1199" stroke="#F3EDD8" stroke-opacity="0.15" stroke-width="2"/>
<line x1="2043.43" y1="1193" x2="2031" y2="1193" stroke="#F3EDD8" stroke-opacity="0.15" stroke-width="2"/>
<line x1="2037" y1="1407" x2="2037" y2="1419" stroke="#F3EDD8" stroke-opacity="0.15" stroke-width="2"/>
<line x1="2043.43" y1="1413" x2="2031" y2="1413" stroke="#F3EDD8" stroke-opacity="0.15" stroke-width="2"/>
<line x1="2037" y1="1627" x2="2037" y2="1639" stroke="#F3EDD8" stroke-opacity="0.15" stroke-width="2"/>
<line x1="2043.43" y1="1633" x2="2031" y2="1633" stroke="#F3EDD8" stroke-opacity="0.15" stroke-width="2"/>
<line x1="2257" y1="87" x2="2257" y2="99" stroke="#F3EDD8" stroke-opacity="0.15" stroke-width="2"/>
<line x1="2263.43" y1="93" x2="2251" y2="93" stroke="#F3EDD8" stroke-opacity="0.15" stroke-width="2"/>
<line x1="2257" y1="307" x2="2257" y2="319" stroke="#F3EDD8" stroke-opacity="0.15" stroke-width="2"/>
<line x1="2263.43" y1="313" x2="2251" y2="313" stroke="#F3EDD8" stroke-opacity="0.15" stroke-width="2"/>
<line x1="2257" y1="527" x2="2257" y2="539" stroke="#F3EDD8" stroke-opacity="0.15" stroke-width="2"/>
<line x1="2263.43" y1="533" x2="2251" y2="533" stroke="#F3EDD8" stroke-opacity="0.15" stroke-width="2"/>
<line x1="2257" y1="747" x2="2257" y2="759" stroke="#F3EDD8" stroke-opacity="0.15" stroke-width="2"/>
<line x1="2263.43" y1="753" x2="2251" y2="753" stroke="#F3EDD8" stroke-opacity="0.15" stroke-width="2"/>
<line x1="2257" y1="967" x2="2257" y2="979" stroke="#F3EDD8" stroke-opacity="0.15" stroke-width="2"/>
<line x1="2263.43" y1="973" x2="2251" y2="973" stroke="#F3EDD8" stroke-opacity="0.15" stroke-width="2"/>
<line x1="2257" y1="1187" x2="2257" y2="1199" stroke="#F3EDD8" stroke-opacity="0.15" stroke-width="2"/>
<line x1="2263.43" y1="1193" x2="2251" y2="1193" stroke="#F3EDD8" stroke-opacity="0.15" stroke-width="2"/>
<line x1="2257" y1="1407" x2="2257" y2="1419" stroke="#F3EDD8" stroke-opacity="0.15" stroke-width="2"/>
<line x1="2263.43" y1="1413" x2="2251" y2="1413" stroke="#F3EDD8" stroke-opacity="0.15" stroke-width="2"/>
<line x1="2257" y1="1627" x2="2257" y2="1639" stroke="#F3EDD8" stroke-opacity="0.15" stroke-width="2"/>
<line x1="2263.43" y1="1633" x2="2251" y2="1633" stroke="#F3EDD8" stroke-opacity="0.15" stroke-width="2"/>
<line x1="2477" y1="87" x2="2477" y2="99" stroke="#F3EDD8" stroke-opacity="0.15" stroke-width="2"/>
<line x1="2483.43" y1="93" x2="2471" y2="93" stroke="#F3EDD8" stroke-opacity="0.15" stroke-width="2"/>
<line x1="2477" y1="307" x2="2477" y2="319" stroke="#F3EDD8" stroke-opacity="0.15" stroke-width="2"/>
<line x1="2483.43" y1="313" x2="2471" y2="313" stroke="#F3EDD8" stroke-opacity="0.15" stroke-width="2"/>
<line x1="2477" y1="527" x2="2477" y2="539" stroke="#F3EDD8" stroke-opacity="0.15" stroke-width="2"/>
<line x1="2483.43" y1="533" x2="2471" y2="533" stroke="#F3EDD8" stroke-opacity="0.15" stroke-width="2"/>
<line x1="2477" y1="747" x2="2477" y2="759" stroke="#F3EDD8" stroke-opacity="0.15" stroke-width="2"/>
<line x1="2483.43" y1="753" x2="2471" y2="753" stroke="#F3EDD8" stroke-opacity="0.15" stroke-width="2"/>
<line x1="2477" y1="967" x2="2477" y2="979" stroke="#F3EDD8" stroke-opacity="0.15" stroke-width="2"/>
<line x1="2483.43" y1="973" x2="2471" y2="973" stroke="#F3EDD8" stroke-opacity="0.15" stroke-width="2"/>
<line x1="2477" y1="1187" x2="2477" y2="1199" stroke="#F3EDD8" stroke-opacity="0.15" stroke-width="2"/>
<line x1="2483.43" y1="1193" x2="2471" y2="1193" stroke="#F3EDD8" stroke-opacity="0.15" stroke-width="2"/>
<line x1="2477" y1="1407" x2="2477" y2="1419" stroke="#F3EDD8" stroke-opacity="0.15" stroke-width="2"/>
<line x1="2483.43" y1="1413" x2="2471" y2="1413" stroke="#F3EDD8" stroke-opacity="0.15" stroke-width="2"/>
<line x1="2477" y1="1627" x2="2477" y2="1639" stroke="#F3EDD8" stroke-opacity="0.15" stroke-width="2"/>
<line x1="2483.43" y1="1633" x2="2471" y2="1633" stroke="#F3EDD8" stroke-opacity="0.15" stroke-width="2"/>
<line x1="2697" y1="87" x2="2697" y2="99" stroke="#F3EDD8" stroke-opacity="0.15" stroke-width="2"/>
<line x1="2703.43" y1="93" x2="2691" y2="93" stroke="#F3EDD8" stroke-opacity="0.15" stroke-width="2"/>
<line x1="2697" y1="307" x2="2697" y2="319" stroke="#F3EDD8" stroke-opacity="0.15" stroke-width="2"/>
<line x1="2703.43" y1="313" x2="2691" y2="313" stroke="#F3EDD8" stroke-opacity="0.15" stroke-width="2"/>
<line x1="2697" y1="527" x2="2697" y2="539" stroke="#F3EDD8" stroke-opacity="0.15" stroke-width="2"/>
<line x1="2703.43" y1="533" x2="2691" y2="533" stroke="#F3EDD8" stroke-opacity="0.15" stroke-width="2"/>
<line x1="2697" y1="747" x2="2697" y2="759" stroke="#F3EDD8" stroke-opacity="0.15" stroke-width="2"/>
<line x1="2703.43" y1="753" x2="2691" y2="753" stroke="#F3EDD8" stroke-opacity="0.15" stroke-width="2"/>
<line x1="2697" y1="967" x2="2697" y2="979" stroke="#F3EDD8" stroke-opacity="0.15" stroke-width="2"/>
<line x1="2703.43" y1="973" x2="2691" y2="973" stroke="#F3EDD8" stroke-opacity="0.15" stroke-width="2"/>
<line x1="2697" y1="1187" x2="2697" y2="1199" stroke="#F3EDD8" stroke-opacity="0.15" stroke-width="2"/>
<line x1="2703.43" y1="1193" x2="2691" y2="1193" stroke="#F3EDD8" stroke-opacity="0.15" stroke-width="2"/>
<line x1="2697" y1="1407" x2="2697" y2="1419" stroke="#F3EDD8" stroke-opacity="0.15" stroke-width="2"/>
<line x1="2703.43" y1="1413" x2="2691" y2="1413" stroke="#F3EDD8" stroke-opacity="0.15" stroke-width="2"/>
<line x1="2697" y1="1627" x2="2697" y2="1639" stroke="#F3EDD8" stroke-opacity="0.15" stroke-width="2"/>
<line x1="2703.43" y1="1633" x2="2691" y2="1633" stroke="#F3EDD8" stroke-opacity="0.15" stroke-width="2"/>
<line x1="2917" y1="87" x2="2917" y2="99" stroke="#F3EDD8" stroke-opacity="0.15" stroke-width="2"/>
<line x1="2923.43" y1="93" x2="2911" y2="93" stroke="#F3EDD8" stroke-opacity="0.15" stroke-width="2"/>
<line x1="2917" y1="307" x2="2917" y2="319" stroke="#F3EDD8" stroke-opacity="0.15" stroke-width="2"/>
<line x1="2923.43" y1="313" x2="2911" y2="313" stroke="#F3EDD8" stroke-opacity="0.15" stroke-width="2"/>
<line x1="2917" y1="527" x2="2917" y2="539" stroke="#F3EDD8" stroke-opacity="0.15" stroke-width="2"/>
<line x1="2923.43" y1="533" x2="2911" y2="533" stroke="#F3EDD8" stroke-opacity="0.15" stroke-width="2"/>
<line x1="2917" y1="747" x2="2917" y2="759" stroke="#F3EDD8" stroke-opacity="0.15" stroke-width="2"/>
<line x1="2923.43" y1="753" x2="2911" y2="753" stroke="#F3EDD8" stroke-opacity="0.15" stroke-width="2"/>
<line x1="2917" y1="967" x2="2917" y2="979" stroke="#F3EDD8" stroke-opacity="0.15" stroke-width="2"/>
<line x1="2923.43" y1="973" x2="2911" y2="973" stroke="#F3EDD8" stroke-opacity="0.15" stroke-width="2"/>
<line x1="2917" y1="1187" x2="2917" y2="1199" stroke="#F3EDD8" stroke-opacity="0.15" stroke-width="2"/>
<line x1="2923.43" y1="1193" x2="2911" y2="1193" stroke="#F3EDD8" stroke-opacity="0.15" stroke-width="2"/>
<line x1="2917" y1="1407" x2="2917" y2="1419" stroke="#F3EDD8" stroke-opacity="0.15" stroke-width="2"/>
<line x1="2923.43" y1="1413" x2="2911" y2="1413" stroke="#F3EDD8" stroke-opacity="0.15" stroke-width="2"/>
<line x1="2917" y1="1627" x2="2917" y2="1639" stroke="#F3EDD8" stroke-opacity="0.15" stroke-width="2"/>
<line x1="2923.43" y1="1633" x2="2911" y2="1633" stroke="#F3EDD8" stroke-opacity="0.15" stroke-width="2"/>
</svg>
